<?xml version="1.0" encoding="utf-8"?>
<svg style="shape-rendering: geometricprecision;" viewBox="-1297.67 -7.445 1126.213 313.692" xmlns="http://www.w3.org/2000/svg">
  <g style="" transform="matrix(0.339244, 0, 0, 0.339244, -857.661194, -4.955669)">
    <g id="Layer_x0020_1" transform="matrix(1, 0, 0, 1, -3790, -16100.5)">
      <path class="fil0" d="M2950 16093l2399 0c252,0 459,206 459,459l0 0c0,252 -207,458 -459,458l-2399 0c-252,0 -458,-206 -458,-458l0 0c0,-253 206,-459 458,-459z" style="fill: rgb(87, 179, 84);"/>
      <g id="_396861768">
        <g>
          <path class="fil1" d="M2862 16728c5,-26 23,-66 15,-86 -10,-29 -24,-41 -31,-83 -32,-202 215,-338 367,-191 149,144 32,391 -170,374 -42,-3 -53,-14 -86,-27 -29,-11 -63,8 -95,13zm-63 63c40,-8 74,-20 114,-30 47,-11 178,86 316,-35 113,-98 136,-269 19,-386 -117,-118 -291,-95 -388,17 -123,143 -19,272 -32,325 -10,36 -22,71 -29,109z" style="fill: rgb(254, 254, 254);"/>
          <path class="fil1" d="M2997 16505c12,-25 37,-24 -7,-100 -53,-4 -74,45 -55,93 49,129 265,221 259,87l-69 -28 -24 34c-48,-8 -89,-50 -104,-86z" style="fill: rgb(254, 254, 254);"/>
        </g>
        <path class="fil1" d="M3660 16499c-14,6 -32,10 -54,10 -29,0 -52,-9 -68,-26 -17,-17 -25,-40 -25,-68 0,-30 9,-55 28,-73 18,-19 43,-28 72,-28 19,0 34,2 47,7l0 40c-13,-7 -27,-11 -43,-11 -18,0 -32,6 -43,17 -11,11 -16,26 -16,45 0,18 5,33 15,44 10,10 24,16 41,16 17,0 32,-4 46,-12l0 39zm158 6l-42 0 0 -76c0,-20 -7,-30 -21,-30 -8,0 -13,3 -18,8 -5,6 -7,13 -7,21l0 77 -41 0 0 -199 41 0 0 85 1 0c10,-16 24,-24 41,-24 31,0 46,19 46,56l0 82zm145 0l-40 0 0 -19 0 0c-9,15 -23,23 -40,23 -13,0 -24,-4 -31,-12 -8,-7 -11,-17 -11,-29 0,-26 15,-41 46,-45l37 -5c0,-15 -8,-22 -24,-22 -16,0 -32,4 -46,14l0 -31c6,-3 14,-6 24,-8 10,-3 19,-4 27,-4 38,0 58,19 58,58l0 80zm-39 -54l0 -10 -25 4c-13,1 -20,7 -20,18 0,5 2,9 5,12 3,3 8,4 13,4 8,0 14,-3 19,-8 5,-5 8,-12 8,-20zm153 53c-6,3 -15,5 -28,5 -29,0 -44,-16 -44,-46l0 -62 -22 0 0 -30 22 0 0 -29 42 -12 0 41 30 0 0 30 -30 0 0 55c0,14 5,21 16,21 5,0 9,-2 14,-4l0 31zm93 -6l0 -42c8,6 16,11 25,14 9,4 18,5 27,5 5,0 10,0 14,-1 4,-1 7,-3 10,-4 3,-2 5,-4 6,-6 1,-3 2,-5 2,-8 0,-4 -1,-7 -3,-10 -2,-3 -5,-5 -9,-8 -4,-2 -8,-5 -13,-7 -5,-2 -10,-5 -16,-7 -15,-6 -26,-13 -33,-22 -7,-9 -11,-20 -11,-32 0,-10 2,-19 6,-26 4,-7 9,-13 16,-17 7,-5 15,-8 24,-10 9,-2 18,-3 28,-3 10,0 19,0 26,1 8,1 15,3 21,6l0 39c-3,-2 -6,-4 -10,-6 -4,-1 -8,-3 -12,-4 -3,-1 -7,-2 -11,-2 -4,-1 -8,-1 -11,-1 -5,0 -10,0 -14,1 -3,1 -7,3 -10,4 -2,2 -4,4 -6,6 -1,3 -2,5 -2,8 0,3 1,6 2,8 2,3 4,5 8,8 3,2 6,4 11,6 4,2 9,5 15,7 7,3 14,6 20,10 6,3 11,7 15,12 5,4 8,9 10,15 2,6 4,13 4,20 0,11 -2,20 -6,27 -4,7 -10,13 -17,17 -6,5 -14,8 -23,10 -10,2 -19,3 -29,3 -11,0 -20,-1 -30,-3 -9,-2 -17,-4 -24,-8zm276 -48l-87 0c1,19 13,29 37,29 14,0 27,-3 39,-10l0 30c-13,6 -29,10 -49,10 -22,0 -38,-7 -51,-19 -11,-12 -18,-28 -18,-50 0,-22 7,-40 20,-53 13,-13 29,-20 48,-20 19,0 35,6 45,18 11,11 16,27 16,47l0 18zm-38 -26c0,-19 -8,-29 -23,-29 -7,0 -13,3 -18,9 -5,5 -8,12 -9,20l50 0zm198 81l-50 0 -43 -67 0 0 0 67 -42 0 0 -199 42 0 0 127 0 0 40 -62 50 0 -49 63 52 71zm128 0l-40 0 0 -19 0 0c-9,15 -23,23 -40,23 -13,0 -24,-4 -31,-12 -8,-7 -11,-17 -11,-29 0,-26 15,-41 46,-45l37 -5c0,-15 -8,-22 -24,-22 -16,0 -32,4 -46,14l0 -31c6,-3 14,-6 24,-8 10,-3 19,-4 27,-4 38,0 58,19 58,58l0 80zm-39 -54l0 -10 -25 4c-13,1 -20,7 -20,18 0,5 2,9 5,12 3,3 8,4 13,4 8,0 14,-3 19,-8 5,-5 8,-12 8,-20zm159 -43c-5,-3 -10,-4 -17,-4 -9,0 -16,3 -21,10 -5,7 -8,16 -8,27l0 64 -41 0 0 -134 41 0 0 25 1 0c6,-19 18,-28 35,-28 5,0 8,1 10,2l0 38zm132 97l-40 0 0 -19 0 0c-9,15 -23,23 -40,23 -13,0 -24,-4 -31,-12 -8,-7 -11,-17 -11,-29 0,-26 15,-41 46,-45l37 -5c0,-15 -8,-22 -24,-22 -16,0 -32,4 -46,14l0 -31c6,-3 14,-6 24,-8 10,-3 19,-4 27,-4 39,0 58,19 58,58l0 80zm-39 -54l0 -10 -25 4c-13,1 -20,7 -20,18 0,5 2,9 5,12 3,3 8,4 13,4 8,0 14,-3 19,-8 5,-5 8,-12 8,-20zm202 54l-42 0 0 -75c0,-20 -7,-31 -22,-31 -7,0 -13,3 -18,8 -5,6 -7,13 -7,21l0 77 -41 0 0 -134 41 0 0 21 1 0c10,-16 24,-25 43,-25 30,0 45,19 45,56l0 82zm164 -15c0,25 -7,44 -21,58 -15,14 -36,20 -63,20 -18,0 -33,-2 -43,-7l0 -35c14,8 28,12 42,12 14,0 25,-4 32,-11 8,-8 12,-18 12,-30l0 -11 -1 0c-9,15 -23,23 -42,23 -17,0 -30,-7 -40,-19 -11,-12 -16,-28 -16,-48 0,-23 6,-41 17,-55 11,-13 26,-20 45,-20 16,0 28,7 36,19l1 0 0 -15 41 0 0 119zm-41 -49l0 -11c0,-9 -2,-16 -7,-22 -5,-6 -12,-9 -20,-9 -9,0 -16,4 -21,11 -6,7 -8,17 -8,30 0,12 2,20 7,27 5,6 12,10 21,10 8,0 15,-4 20,-10 6,-7 8,-16 8,-26zm124 -124l-5 130 -33 0 -5 -130 43 0zm-21 191c-7,0 -13,-2 -17,-6 -5,-4 -7,-10 -7,-16 0,-6 2,-11 7,-15 4,-4 10,-6 17,-6 7,0 13,2 17,6 5,4 7,9 7,15 0,7 -2,12 -7,16 -4,4 -10,6 -17,6z" style="fill: rgb(254, 254, 254);"/>
        <path class="fil1" d="M3579 16790c-44,0 -67,-32 -67,-95 0,-33 6,-58 18,-75 13,-17 30,-25 53,-25 44,0 66,32 66,96 0,32 -6,56 -18,73 -12,17 -29,26 -52,26zm2 -164c-18,0 -27,23 -27,68 0,43 9,64 27,64 17,0 26,-22 26,-66 0,-44 -9,-66 -26,-66zm87 110c0,-6 1,-11 3,-16 1,-4 4,-9 7,-13 3,-4 7,-8 11,-11 5,-4 10,-6 16,-8 -9,-5 -17,-11 -22,-19 -5,-7 -8,-15 -8,-24 0,-7 2,-14 5,-20 3,-6 7,-12 12,-16 6,-5 12,-8 20,-11 7,-2 15,-3 24,-3 9,0 17,1 24,3 8,3 14,6 20,11 5,4 9,9 12,16 3,6 5,12 5,19 0,9 -3,17 -9,25 -5,7 -13,13 -23,18 6,2 12,4 16,8 5,3 9,7 12,11 3,4 5,9 7,14 2,5 2,10 2,15 0,8 -1,16 -5,22 -3,7 -7,13 -13,17 -6,5 -13,9 -21,11 -9,3 -18,4 -28,4 -9,0 -18,-1 -26,-4 -9,-2 -16,-6 -22,-11 -6,-4 -10,-10 -14,-17 -3,-6 -5,-13 -5,-21zm40 -4c0,4 0,8 2,12 1,3 3,6 5,8 3,3 6,4 9,6 4,1 7,2 12,2 4,0 7,-1 11,-2 3,-2 6,-3 8,-6 3,-2 5,-5 6,-9 2,-3 2,-7 2,-11 0,-4 0,-7 -2,-11 -1,-3 -3,-6 -5,-9 -3,-2 -6,-4 -9,-6 -3,-1 -7,-2 -11,-2 -4,0 -8,1 -12,2 -3,2 -6,4 -8,6 -3,2 -5,5 -6,9 -2,3 -2,7 -2,11zm6 -83c0,3 0,6 1,9 2,3 3,5 5,8 2,2 5,3 7,5 3,1 6,1 9,1 3,0 6,0 9,-1 3,-2 5,-3 7,-5 2,-3 4,-5 5,-8 1,-3 2,-6 2,-9 0,-4 -1,-7 -2,-10 -1,-3 -3,-5 -5,-8 -2,-2 -4,-3 -7,-5 -3,-1 -6,-1 -9,-1 -3,0 -6,0 -9,1 -3,2 -5,3 -7,6 -2,2 -4,4 -5,7 -1,3 -1,6 -1,10zm208 -55l0 192 -41 0 0 -146c-2,2 -5,4 -8,6 -3,2 -7,4 -10,5 -4,1 -7,3 -11,4 -4,1 -8,1 -11,2l0 -35c10,-3 21,-7 30,-12 10,-5 18,-11 26,-16l25 0zm61 186l0 -36c13,9 27,14 44,14 11,0 19,-2 25,-7 6,-5 9,-11 9,-19 0,-8 -4,-15 -11,-20 -7,-4 -17,-6 -30,-6l-18 0 0 -32 16 0c25,0 37,-8 37,-25 0,-15 -9,-23 -28,-23 -13,0 -25,4 -37,13l0 -34c13,-7 29,-10 46,-10 20,0 35,4 45,13 11,8 17,20 17,33 0,25 -13,41 -38,47l0 0c13,2 24,7 32,15 7,8 11,18 11,29 0,18 -6,32 -19,42 -13,10 -31,16 -54,16 -19,0 -35,-4 -47,-10zm323 -186l0 192 -41 0 0 -146c-3,2 -5,4 -8,6 -3,2 -7,4 -10,5 -4,1 -7,3 -11,4 -4,1 -8,1 -11,2l0 -35c10,-3 21,-7 30,-12 10,-5 18,-11 26,-16l25 0zm155 0l0 192 -41 0 0 -146c-3,2 -5,4 -9,6 -3,2 -6,4 -9,5 -4,1 -8,3 -11,4 -4,1 -8,1 -12,2l0 -35c11,-3 21,-7 31,-12 10,-5 18,-11 26,-16l25 0zm102 158l80 0 0 34 -126 0 0 -14c0,-9 2,-18 5,-26 4,-7 8,-14 12,-20 5,-7 11,-12 17,-17 5,-4 11,-9 16,-12 6,-4 11,-8 15,-12 4,-3 7,-7 10,-10 3,-4 5,-7 7,-11 1,-4 2,-8 2,-12 0,-8 -3,-14 -7,-18 -5,-4 -12,-6 -21,-6 -16,0 -32,6 -47,19l0 -36c17,-11 35,-16 56,-16 10,0 18,1 26,3 7,3 14,6 19,11 5,5 9,10 12,17 3,7 4,14 4,22 0,9 -1,17 -4,23 -3,7 -6,13 -11,19 -4,5 -9,10 -15,15 -6,5 -12,9 -18,13 -4,3 -8,6 -12,9 -4,3 -7,6 -10,9 -3,3 -6,5 -8,8 -1,3 -2,5 -2,8zm155 0l80 0 0 34 -126 0 0 -14c0,-9 2,-18 5,-26 3,-7 7,-14 12,-20 5,-7 11,-12 16,-17 6,-4 12,-9 17,-12 6,-4 10,-8 15,-12 4,-3 7,-7 10,-10 3,-4 5,-7 6,-11 2,-4 3,-8 3,-12 0,-8 -3,-14 -7,-18 -5,-4 -12,-6 -21,-6 -16,0 -32,6 -47,19l0 -36c17,-11 35,-16 56,-16 9,0 18,1 25,3 8,3 14,6 20,11 5,5 9,10 12,17 3,7 4,14 4,22 0,9 -1,17 -4,23 -3,7 -6,13 -11,19 -4,5 -9,10 -15,15 -6,5 -12,9 -18,13 -4,3 -8,6 -12,9 -4,3 -8,6 -11,9 -3,3 -5,5 -7,8 -1,3 -2,5 -2,8zm188 28l0 -36c12,9 27,14 44,14 11,0 19,-2 25,-7 6,-5 9,-11 9,-19 0,-8 -4,-15 -11,-20 -8,-4 -18,-6 -31,-6l-17 0 0 -32 16 0c25,0 37,-8 37,-25 0,-15 -9,-23 -28,-23 -13,0 -25,4 -37,13l0 -34c13,-7 29,-10 46,-10 19,0 34,4 45,13 11,8 16,20 16,33 0,25 -12,41 -37,47l0 0c13,2 24,7 31,15 8,8 12,18 12,29 0,18 -6,32 -19,42 -13,10 -31,16 -54,16 -19,0 -35,-4 -47,-10zm150 -44c0,-6 1,-11 2,-16 2,-4 4,-9 7,-13 3,-4 7,-8 12,-11 4,-4 10,-6 16,-8 -10,-5 -17,-11 -22,-19 -6,-7 -8,-15 -8,-24 0,-7 1,-14 4,-20 3,-6 7,-12 13,-16 5,-5 11,-8 19,-11 7,-2 15,-3 24,-3 9,0 17,1 25,3 7,3 14,6 19,11 5,4 10,9 12,16 4,6 5,12 5,19 0,9 -3,17 -8,25 -6,7 -14,13 -24,18 6,2 12,4 16,8 5,3 9,7 12,11 3,4 6,9 7,14 2,5 3,10 3,15 0,8 -2,16 -5,22 -3,7 -8,13 -14,17 -6,5 -13,9 -21,11 -8,3 -17,4 -27,4 -10,0 -19,-1 -27,-4 -8,-2 -15,-6 -21,-11 -6,-4 -11,-10 -14,-17 -4,-6 -5,-13 -5,-21zm39 -4c0,4 1,8 2,12 1,3 3,6 6,8 2,3 5,4 8,6 4,1 8,2 12,2 4,0 8,-1 11,-2 3,-2 6,-3 9,-6 2,-2 4,-5 5,-9 2,-3 3,-7 3,-11 0,-4 -1,-7 -2,-11 -2,-3 -4,-6 -6,-9 -2,-2 -5,-4 -9,-6 -3,-1 -7,-2 -11,-2 -4,0 -8,1 -11,2 -4,2 -7,4 -9,6 -2,2 -4,5 -6,9 -1,3 -2,7 -2,11zm6 -83c0,3 0,6 2,9 1,3 2,5 4,8 2,2 5,3 8,5 2,1 5,1 8,1 4,0 6,0 9,-1 3,-2 5,-3 7,-5 2,-3 4,-5 5,-8 1,-3 2,-6 2,-9 0,-4 -1,-7 -2,-10 -1,-3 -2,-5 -5,-8 -2,-2 -4,-3 -7,-5 -2,-1 -5,-1 -9,-1 -3,0 -6,0 -9,1 -3,2 -5,3 -7,6 -2,2 -3,4 -4,7 -2,3 -2,6 -2,10zm110 87c0,-6 0,-11 2,-16 1,-4 4,-9 7,-13 3,-4 7,-8 11,-11 5,-4 10,-6 17,-8 -10,-5 -17,-11 -23,-19 -5,-7 -7,-15 -7,-24 0,-7 1,-14 4,-20 3,-6 7,-12 13,-16 5,-5 11,-8 19,-11 7,-2 15,-3 24,-3 9,0 17,1 25,3 7,3 13,6 19,11 5,4 9,9 12,16 3,6 5,12 5,19 0,9 -3,17 -9,25 -5,7 -13,13 -23,18 6,2 12,4 16,8 5,3 9,7 12,11 3,4 6,9 7,14 2,5 2,10 2,15 0,8 -1,16 -4,22 -4,7 -8,13 -14,17 -6,5 -13,9 -21,11 -8,3 -18,4 -27,4 -10,0 -19,-1 -27,-4 -9,-2 -16,-6 -21,-11 -6,-4 -11,-10 -14,-17 -4,-6 -5,-13 -5,-21zm39 -4c0,4 1,8 2,12 1,3 3,6 6,8 2,3 5,4 8,6 4,1 8,2 12,2 4,0 7,-1 11,-2 3,-2 6,-3 9,-6 2,-2 4,-5 5,-9 2,-3 2,-7 2,-11 0,-4 0,-7 -2,-11 -1,-3 -3,-6 -5,-9 -3,-2 -6,-4 -9,-6 -3,-1 -7,-2 -11,-2 -4,0 -8,1 -11,2 -4,2 -7,4 -9,6 -3,2 -5,5 -6,9 -1,3 -2,7 -2,11zm6 -83c0,3 0,6 2,9 1,3 2,5 4,8 2,2 5,3 7,5 3,1 6,1 9,1 3,0 6,0 9,-1 3,-2 5,-3 7,-5 2,-3 4,-5 5,-8 1,-3 2,-6 2,-9 0,-4 -1,-7 -2,-10 -1,-3 -3,-5 -5,-8 -2,-2 -4,-3 -7,-5 -3,-1 -6,-1 -9,-1 -3,0 -6,0 -9,1 -3,2 -5,3 -7,6 -2,2 -4,4 -5,7 -1,3 -1,6 -1,10zm245 75c0,9 -2,18 -5,26 -3,8 -8,15 -13,21 -6,6 -13,10 -21,14 -8,3 -17,5 -26,5 -11,0 -20,-2 -29,-6 -8,-4 -15,-10 -21,-17 -6,-8 -10,-17 -13,-28 -3,-11 -5,-23 -5,-37 0,-16 2,-31 6,-44 4,-13 10,-24 17,-34 8,-9 17,-17 27,-22 11,-5 22,-7 36,-7 14,0 25,1 33,5l0 34c-9,-5 -19,-8 -31,-8 -7,0 -13,2 -19,4 -6,3 -10,7 -15,12 -4,5 -7,11 -9,18 -2,7 -4,15 -4,24l1 0c9,-13 22,-19 39,-19 8,0 15,2 22,4 6,3 11,7 16,12 4,5 8,12 10,19 3,7 4,15 4,24zm-41 2c0,-20 -8,-30 -25,-30 -3,0 -7,1 -10,2 -3,1 -5,3 -8,6 -2,2 -4,5 -5,9 -1,3 -2,7 -2,11 0,5 1,9 2,13 2,4 3,8 5,11 3,3 5,5 8,7 4,2 7,3 11,3 3,0 7,-1 10,-2 3,-2 6,-4 8,-7 2,-3 3,-6 5,-10 1,-4 1,-8 1,-13z" style="fill: rgb(254, 254, 254);"/>
      </g>
    </g>
  </g>
</svg>