<?xml version="1.0" encoding="UTF-8"?>
<!DOCTYPE svg PUBLIC "-//W3C//DTD SVG 1.1//EN" "http://www.w3.org/Graphics/SVG/1.1/DTD/svg11.dtd">
<!-- Creator: CorelDRAW X7 -->
<svg xmlns="http://www.w3.org/2000/svg" xml:space="preserve" width="81.2798mm" height="42.3332mm" version="1.1" style="shape-rendering:geometricPrecision; text-rendering:geometricPrecision; image-rendering:optimizeQuality; fill-rule:evenodd; clip-rule:evenodd"
viewBox="0 0 8128 4233"
 xmlns:xlink="http://www.w3.org/1999/xlink">
 <defs>
  <style type="text/css">
   <![CDATA[
    .fil0 {fill:#474443}
   ]]>
  </style>
 </defs>
 <g id="Layer_x0020_1">
  <metadata id="CorelCorpID_0Corel-Layer"/>
  <path class="fil0" d="M5777 2006l103 0c24,0 41,5 54,15 12,11 18,25 18,42 0,17 -6,30 -17,39 -16,12 -35,18 -57,18l-38 0 0 71c0,5 1,8 3,9 3,3 6,4 11,4l24 0 0 10 -101 0 0 -10 21 0c4,0 7,-1 9,-3 2,-1 3,-4 3,-6l0 -167c0,-4 -1,-7 -3,-9 -3,-2 -8,-3 -14,-3l-16 0 0 -10zm63 104l29 0c18,0 31,-4 39,-11 7,-8 11,-20 11,-37 0,-13 -1,-22 -5,-28 -3,-7 -9,-11 -16,-14 -7,-4 -18,-5 -34,-5 -10,0 -17,1 -20,3 -2,2 -4,5 -4,10l0 82zm107 28l58 0 0 21 -58 0 0 -21zm57 -132l96 0 0 10 -16 0c-7,0 -12,1 -14,3 -2,2 -3,6 -3,12l0 158c0,6 1,10 3,11 2,3 6,4 12,4l18 0 0 10 -96 0 0 -10 18 0c7,0 11,-1 13,-3 2,-2 3,-6 3,-12l0 -158c0,-6 -1,-10 -3,-11 -3,-3 -7,-4 -14,-4l-17 0 0 -10zm84 0l108 0c21,0 37,4 48,14 12,9 18,22 18,37 0,10 -3,18 -7,25 -5,7 -11,13 -20,17 -9,4 -22,7 -41,9 14,4 23,8 28,11 5,4 9,8 12,14 3,5 7,17 11,34 3,12 6,21 9,25 2,4 5,6 8,6 3,0 5,-3 8,-7 2,-4 4,-12 5,-23l9 0c-2,32 -13,48 -35,48 -7,0 -13,-1 -18,-5 -5,-3 -9,-8 -11,-15 -2,-5 -5,-19 -7,-40 -2,-13 -4,-22 -7,-27 -3,-5 -8,-9 -14,-12 -7,-4 -14,-5 -23,-5l-18 0 0 82c0,3 1,6 3,7 2,2 6,3 11,3l19 0 0 10 -96 0 0 -10 20 0c5,0 8,-1 10,-3 2,-2 3,-4 3,-7l0 -167c0,-4 -1,-6 -3,-8 -2,-2 -5,-3 -10,-3l-20 0 0 -10zm63 96l25 0c17,0 30,-4 39,-10 10,-6 14,-17 14,-33 0,-11 -2,-20 -5,-26 -4,-6 -8,-11 -14,-13 -6,-3 -17,-4 -34,-4 -11,0 -18,1 -21,3 -2,1 -4,4 -4,8l0 75zm120 -96l170 0 4 79 -10 0c-7,-47 -23,-70 -50,-70 -6,0 -10,1 -12,3 -2,2 -3,5 -3,9l0 167c0,3 1,6 3,7 2,2 6,3 10,3l21 0 0 10 -97 0 0 -10 24 0c3,0 6,-1 7,-3 2,-1 3,-3 3,-6l0 -169c0,-4 -1,-7 -3,-8 -2,-2 -6,-3 -11,-3 -13,0 -25,6 -34,19 -7,11 -12,28 -16,51l-10 0 4 -79z"/>
  <path class="fil0" d="M5783 1889l49 0 0 6 -9 0c-3,0 -6,0 -7,1 -1,1 -1,3 -1,6l0 80c0,3 0,5 1,6 1,1 3,2 6,2l10 0 0 5 -49 0 0 -5 9 0c3,0 5,-1 6,-2 1,-1 2,-3 2,-6l0 -80c0,-3 -1,-5 -1,-6 -2,-1 -4,-1 -8,-1l-8 0 0 -6zm60 39l54 0 0 4 -42 58 20 0c5,0 9,-2 11,-5 3,-3 5,-8 7,-16l5 0 -2 26 -56 0 0 -5 42 -57 -18 0c-4,0 -7,1 -8,2 -2,1 -4,2 -5,5 -2,2 -3,6 -4,12l-5 0 1 -24zm78 -40c2,0 4,1 6,2 1,2 2,4 2,6 0,2 -1,4 -2,6 -2,1 -4,2 -6,2 -2,0 -4,-1 -6,-2 -1,-2 -2,-4 -2,-6 0,-2 1,-4 3,-6 1,-1 3,-2 5,-2zm-19 40l27 -1 0 58c0,2 1,3 1,3 1,1 3,2 5,2l7 0 0 5 -38 0 0 -5 7 0c2,0 4,-1 5,-2 1,-1 1,-2 1,-4l0 -42c0,-3 -1,-5 -2,-7 -2,-1 -4,-2 -7,-2l-6 0 0 -5zm43 0l23 -1c0,4 1,9 2,14 3,-4 6,-8 10,-11 4,-2 9,-3 14,-3 5,0 8,1 11,2 3,2 6,5 8,9 1,3 2,8 2,12l0 33c0,3 1,4 2,5 1,1 3,2 5,2l5 0 0 5 -35 0 0 -5 3 0c3,0 5,-1 7,-2 1,-1 2,-2 2,-4l0 -29c0,-6 -1,-11 -3,-14 -3,-4 -7,-6 -12,-6 -6,0 -10,2 -14,6 -4,5 -5,10 -5,17l0 25c0,3 0,4 1,5 1,1 3,2 6,2l5 0 0 5 -36 0 0 -5 5 0c2,0 4,-1 5,-2 1,-1 2,-2 2,-3l0 -44c0,-3 -1,-5 -3,-6 -1,-2 -3,-2 -6,-2l-4 0 0 -5zm189 34l-48 0c0,10 2,18 6,22 4,5 9,7 15,7 10,0 17,-5 23,-16l5 2c-7,13 -17,20 -31,20 -9,0 -16,-3 -22,-10 -6,-6 -9,-14 -9,-24 0,-11 3,-20 9,-27 6,-7 13,-10 22,-10 6,0 12,2 17,5 5,3 8,8 10,14 2,5 3,10 3,17zm-48 -5l29 0c2,0 3,-1 4,-2 1,-1 2,-3 2,-6 0,-5 -2,-9 -5,-13 -4,-4 -7,-6 -12,-6 -5,0 -9,3 -13,7 -3,4 -5,11 -5,20zm92 -68l26 -1 0 92c0,4 1,6 2,8 2,1 4,2 6,2l5 0 0 5 -23 0 -2 -13c-2,5 -5,8 -9,11 -4,2 -8,3 -12,3 -8,0 -15,-3 -20,-9 -5,-7 -8,-15 -8,-26 0,-11 3,-20 10,-27 6,-5 12,-8 19,-8 4,0 8,1 12,3 3,2 6,6 8,10l0 -38c0,-2 0,-3 -2,-5 -1,-1 -4,-1 -7,-1l-5 0 0 -6zm-4 43c-5,0 -9,2 -12,7 -3,4 -5,11 -5,21 0,11 2,19 5,23 3,5 7,7 12,7 5,0 9,-2 13,-7 4,-5 6,-13 6,-22 0,-10 -2,-17 -6,-22 -4,-5 -8,-7 -13,-7zm117 56l2 4c-3,3 -7,5 -11,5 -4,0 -6,-1 -9,-2 -2,-2 -4,-5 -5,-10 -5,5 -9,8 -12,10 -4,1 -8,2 -13,2 -7,0 -12,-1 -15,-4 -4,-3 -6,-7 -6,-12 0,-7 4,-12 12,-17 9,-5 19,-8 33,-9l0 -10c0,-4 -1,-7 -4,-10 -3,-2 -7,-3 -11,-3 -5,0 -8,0 -11,2 -2,1 -3,3 -3,4 0,1 0,2 1,3 2,2 2,4 2,5 0,3 0,4 -2,6 -1,1 -3,2 -5,2 -2,0 -4,-1 -6,-3 -2,-1 -2,-3 -2,-6 0,-5 2,-9 8,-13 5,-4 12,-6 21,-6 8,0 14,2 18,5 4,4 6,8 6,13l0 37c0,3 1,5 2,7 1,1 2,2 4,2 2,0 4,-1 6,-2zm-24 -29c-12,2 -21,5 -26,9 -3,3 -5,7 -5,12 0,4 1,6 3,9 2,2 4,3 7,3 6,0 11,-3 15,-7 4,-4 6,-9 6,-16l0 -10zm29 -31l24 -1 0 27c3,-9 6,-16 9,-20 4,-5 9,-7 14,-7 4,0 6,1 9,3 2,2 3,5 3,9 0,3 -1,5 -2,7 -2,2 -4,3 -6,3 -2,0 -4,-1 -5,-3 -1,-1 -2,-3 -2,-5 0,-2 0,-3 1,-5 1,-1 1,-2 1,-2 0,-1 0,-1 -1,-1 -2,0 -4,1 -7,3 -3,4 -6,8 -8,14 -3,8 -4,15 -4,20l0 15c0,1 1,3 2,4 1,0 3,1 6,1l8 0 0 5 -42 0 0 -5 7 0c2,0 4,-1 5,-1 1,-1 2,-2 2,-4l0 -42c0,-4 -1,-6 -2,-8 -2,-1 -4,-2 -6,-2l-6 0 0 -5z"/>
 </g>
</svg>
