<?xml version="1.0" encoding="UTF-8"?>
<!DOCTYPE svg PUBLIC "-//W3C//DTD SVG 1.1//EN" "http://www.w3.org/Graphics/SVG/1.1/DTD/svg11.dtd">
<!-- Creator: CorelDRAW X7 -->
<svg xmlns="http://www.w3.org/2000/svg" xml:space="preserve" width="81.2798mm" height="42.3332mm" version="1.1" style="shape-rendering:geometricPrecision; text-rendering:geometricPrecision; image-rendering:optimizeQuality; fill-rule:evenodd; clip-rule:evenodd"
viewBox="0 0 8128 4233"
 xmlns:xlink="http://www.w3.org/1999/xlink">
 <defs>
  <style type="text/css">
   <![CDATA[
    .fil0 {fill:#474443}
   ]]>
  </style>
 </defs>
 <g id="Layer_x0020_1">
  <metadata id="CorelCorpID_0Corel-Layer"/>
  <path class="fil0" d="M3834 2183c-4,6 17,9 64,9 7,0 12,-2 15,-6 3,-3 6,-14 10,-30l10 0 -5 58 -126 0 0 -7 41 -47c23,-25 37,-40 41,-47 7,-9 12,-18 15,-26 3,-9 4,-16 4,-23 0,-12 -3,-21 -9,-28 -7,-6 -16,-10 -27,-10 -13,0 -23,3 -31,10 -8,6 -12,12 -12,19 0,2 0,4 1,5 2,2 4,3 8,4 9,2 14,8 14,16 0,5 -2,9 -5,12 -3,3 -7,5 -12,5 -6,0 -11,-3 -15,-8 -4,-5 -7,-12 -7,-21 0,-9 3,-18 8,-26 5,-8 12,-14 22,-19 10,-5 21,-8 32,-8 12,0 22,3 32,7 10,5 17,12 22,20 5,8 7,16 7,26 0,6 -1,13 -3,20 -3,6 -6,12 -11,18 -8,10 -17,19 -25,26l-37 31c-10,8 -17,15 -21,20zm165 -168c19,0 34,7 46,22 15,17 23,44 23,79 0,34 -7,59 -20,76 -13,17 -29,26 -48,26 -18,0 -33,-7 -45,-22 -15,-18 -22,-44 -22,-79 0,-33 7,-59 21,-78 11,-16 27,-24 45,-24zm1 10c-12,0 -22,6 -29,18 -7,12 -10,37 -10,74 0,36 3,61 10,73 8,12 17,18 29,18 13,0 22,-5 29,-17 7,-13 11,-37 11,-73 0,-37 -3,-61 -11,-74 -7,-12 -17,-19 -29,-19zm147 -6l0 176c0,2 1,4 2,6 3,2 6,3 10,3l28 0 0 10 -102 0 0 -10 24 0c5,0 8,-1 11,-4 2,-2 3,-5 3,-9l0 -133c0,-3 -1,-5 -3,-7 -2,-2 -5,-3 -8,-3l-32 0 0 -9c15,-2 27,-5 36,-8 9,-3 17,-7 24,-12l7 0zm71 -4c23,6 43,8 58,8 7,0 13,0 20,-2 6,-1 11,-3 14,-5 1,0 2,-1 3,-1 1,0 1,1 1,2 0,4 -2,8 -6,13 -4,6 -10,10 -18,13 -7,4 -15,5 -25,5 -11,0 -24,-2 -39,-5l-5 54c8,-4 14,-6 21,-8 6,-2 12,-3 18,-3 19,0 34,6 47,19 12,12 19,27 19,45 0,20 -7,36 -20,49 -14,13 -31,19 -52,19 -16,0 -30,-4 -40,-14 -10,-9 -15,-20 -15,-33 0,-7 1,-13 5,-17 3,-5 7,-7 12,-7 5,0 9,2 12,5 3,4 5,8 5,13 0,4 -1,7 -2,10 -2,2 -5,4 -9,5 -4,2 -6,4 -6,6 0,3 2,6 4,10 3,3 7,6 13,9 6,2 12,3 20,3 14,0 25,-4 32,-13 8,-9 12,-24 12,-44 0,-18 -4,-31 -12,-40 -8,-8 -18,-13 -31,-13 -6,0 -11,1 -17,4 -5,2 -11,5 -17,9 0,6 -2,11 -3,13 -2,2 -4,3 -7,3 -2,0 -3,0 -4,-2 -1,-1 -2,-3 -2,-5 0,-4 2,-8 6,-12 1,-2 2,-3 2,-4l3 -41c2,-17 2,-33 3,-48z"/>
  <path class="fil0" d="M3800 1896l84 0 2 36 -5 0c-2,-11 -5,-19 -9,-24 -4,-4 -10,-7 -16,-7l-21 0c-2,0 -3,1 -4,2 -1,1 -1,2 -1,4l0 38 9 0c5,0 9,-2 12,-6 3,-3 5,-8 5,-16l5 0 0 50 -5 0c0,-9 -2,-14 -5,-18 -3,-3 -7,-5 -13,-5l-8 0 0 42c0,1 0,3 1,3 1,1 3,2 6,2l16 0c18,0 28,-12 31,-34l5 0 -2 39 -87 0 0 -5 7 0c3,0 5,-1 6,-2 1,-1 2,-2 2,-4l0 -84c0,-2 -1,-3 -2,-4 -1,-1 -3,-2 -5,-2l-8 0 0 -5zm105 81c2,8 6,14 10,17 4,3 8,5 14,5 5,0 9,-2 12,-4 3,-2 4,-5 4,-8 0,-2 0,-4 -1,-6 -1,-1 -3,-2 -5,-3 -2,-1 -6,-2 -14,-3 -7,-2 -12,-3 -15,-5 -3,-1 -5,-4 -7,-6 -1,-3 -2,-6 -2,-9 0,-5 1,-10 5,-14 4,-5 10,-7 18,-7 6,0 11,1 16,5l5 -5 3 0 2 24 -5 0c-2,-7 -5,-12 -9,-15 -3,-3 -8,-4 -13,-4 -5,0 -8,1 -11,3 -3,2 -4,5 -4,8 0,3 1,5 4,7 2,2 7,4 14,5 8,1 13,2 15,3 4,2 7,4 9,7 2,3 3,6 3,11 0,6 -2,11 -7,15 -4,4 -10,6 -17,6 -7,0 -13,-2 -19,-6l-5 6 -4 0 -1 -27 5 0zm73 -70l4 0 0 28 22 0 0 6 -22 0 0 44c0,3 1,6 3,8 2,2 4,3 7,3 3,0 6,-1 8,-4 2,-3 4,-8 4,-15l5 0c0,9 -3,15 -6,20 -4,4 -9,6 -15,6 -6,0 -10,-1 -13,-4 -3,-4 -5,-7 -5,-12l0 -46 -11 0 0 -5c5,-1 9,-3 12,-6 4,-6 6,-13 7,-23zm50 79c2,0 5,1 6,3 2,2 3,4 3,6 0,3 -1,5 -3,6 -1,2 -4,3 -6,3 -2,0 -4,-1 -6,-3 -2,-1 -3,-3 -3,-6 0,-2 1,-4 3,-6 2,-2 4,-3 6,-3z"/>
 </g>
</svg>
