<?xml version="1.0" encoding="UTF-8"?>
<!DOCTYPE svg PUBLIC "-//W3C//DTD SVG 1.1//EN" "http://www.w3.org/Graphics/SVG/1.1/DTD/svg11.dtd">
<!-- Creator: CorelDRAW X7 -->
<svg xmlns="http://www.w3.org/2000/svg" xml:space="preserve" width="81.2798mm" height="42.3332mm" version="1.1" style="shape-rendering:geometricPrecision; text-rendering:geometricPrecision; image-rendering:optimizeQuality; fill-rule:evenodd; clip-rule:evenodd"
viewBox="0 0 8128 4233"
 xmlns:xlink="http://www.w3.org/1999/xlink">
 <defs>
  <style type="text/css">
   <![CDATA[
    .fil0 {fill:#474443}
   ]]>
  </style>
 </defs>
 <g id="Layer_x0020_1">
  <metadata id="CorelCorpID_0Corel-Layer"/>
  <path class="fil0" d="M4642 2001c18,0 34,5 50,14 15,9 27,22 36,39 9,17 13,35 13,56 0,21 -4,40 -13,56 -9,17 -21,30 -36,40 -15,9 -32,14 -49,14 -17,0 -32,-5 -47,-14 -15,-9 -26,-22 -35,-40 -9,-17 -14,-36 -14,-56 0,-21 5,-39 13,-56 9,-16 21,-29 36,-39 15,-9 30,-14 46,-14zm3 11c-19,0 -34,8 -45,23 -11,15 -17,40 -17,75 0,37 6,63 17,77 12,14 27,22 44,22 12,0 22,-4 32,-10 9,-7 16,-17 21,-31 6,-14 8,-33 8,-56 0,-25 -2,-44 -7,-58 -5,-14 -12,-25 -22,-32 -9,-6 -20,-10 -31,-10zm88 70l48 -2 0 53c5,-18 11,-31 18,-40 7,-9 16,-13 27,-13 7,0 13,2 17,6 4,5 6,10 6,18 0,6 -1,10 -4,14 -3,3 -7,4 -11,4 -4,0 -8,-1 -10,-4 -3,-3 -4,-6 -4,-11 0,-3 1,-6 2,-9 2,-2 2,-4 2,-4 0,-2 -1,-2 -2,-2 -4,0 -9,2 -13,6 -7,7 -12,15 -16,26 -6,17 -9,31 -9,41l0 29c0,3 2,5 4,7 2,2 6,3 11,3l17 0 0 10 -82 0 0 -10 13 0c4,0 8,-1 10,-3 2,-2 3,-4 3,-6l0 -84c0,-7 -1,-11 -4,-14 -2,-3 -6,-5 -11,-5l-12 0 0 -10zm134 -79c5,0 8,2 12,5 3,3 4,7 4,11 0,4 -1,8 -4,11 -3,3 -7,5 -11,5 -5,0 -9,-2 -12,-5 -3,-3 -4,-7 -4,-11 0,-4 1,-8 4,-11 4,-3 7,-5 11,-5zm-37 79l53 -1 0 113c0,3 1,6 3,7 2,2 5,3 8,3l15 0 0 10 -76 0 0 -10 14 0c5,0 8,-1 9,-3 2,-2 3,-5 3,-9l0 -83c0,-6 -1,-10 -4,-12 -3,-3 -8,-4 -14,-4l-11 0 0 -11zm164 8c10,-10 18,-15 26,-15 5,0 9,2 12,5 3,3 5,7 5,11 0,3 -1,6 -3,9 -3,2 -5,3 -8,3 -5,0 -9,-3 -11,-10 0,-3 -2,-4 -3,-4 -4,0 -7,2 -11,6 4,6 7,11 8,15 2,4 3,8 3,13 0,8 -2,15 -6,22 -4,6 -11,11 -20,16 -9,5 -18,7 -26,7l-16 0c-11,0 -18,2 -22,4 -3,2 -5,6 -5,10 0,4 1,7 4,9 3,2 9,3 17,3l35 -1c17,0 30,3 38,9 8,5 12,13 12,24 0,11 -5,21 -14,28 -12,11 -30,17 -55,17 -20,0 -35,-4 -45,-11 -8,-6 -12,-13 -12,-20 0,-6 3,-11 8,-15 5,-5 13,-8 25,-11 -10,-2 -17,-5 -21,-10 -5,-4 -7,-9 -7,-16 0,-6 2,-11 5,-16 4,-4 11,-8 20,-11 -8,-5 -14,-10 -18,-16 -4,-6 -6,-14 -6,-22 0,-12 5,-23 15,-32 10,-8 23,-13 40,-13 6,0 13,1 19,3 6,2 12,5 17,9zm-37 -3c-8,0 -15,3 -21,9 -5,7 -8,15 -8,26 0,12 3,21 8,28 6,6 13,10 21,10 9,0 16,-3 21,-10 6,-6 8,-15 8,-27 0,-11 -2,-20 -8,-26 -5,-7 -12,-10 -21,-10zm8 127c-17,0 -29,3 -37,8 -7,4 -11,10 -11,17 0,6 3,11 9,15 7,5 17,7 31,7 16,0 28,-2 36,-8 9,-5 13,-11 13,-18 0,-3 -1,-7 -4,-10 -3,-4 -7,-6 -12,-8 -6,-2 -14,-3 -25,-3zm87 -211c4,0 8,2 11,5 3,3 5,7 5,11 0,4 -1,8 -5,11 -3,3 -6,5 -11,5 -4,0 -8,-2 -11,-5 -3,-3 -5,-7 -5,-11 0,-4 2,-8 5,-11 3,-3 7,-5 11,-5zm-37 79l53 -1 0 113c0,3 1,6 2,7 3,2 5,3 9,3l15 0 0 10 -76 0 0 -10 14 0c4,0 7,-1 9,-3 2,-2 3,-5 3,-9l0 -83c0,-6 -1,-10 -4,-12 -3,-3 -8,-4 -14,-4l-11 0 0 -11zm63 0l44 -3c1,9 3,18 4,30 6,-10 13,-17 21,-22 8,-5 17,-7 27,-7 9,0 16,1 22,5 6,3 11,9 14,16 4,8 6,16 6,25l0 64c0,5 1,9 3,11 2,2 6,3 11,3l9 0 0 10 -70 0 0 -10 7 0c6,0 10,-1 13,-3 2,-2 3,-5 3,-9l0 -57c0,-12 -1,-21 -5,-27 -5,-8 -13,-13 -24,-13 -11,0 -20,5 -27,13 -7,9 -10,20 -10,34l0 48c0,5 1,9 3,11 2,2 6,3 11,3l9 0 0 10 -70 0 0 -10 9 0c5,0 8,-1 11,-3 2,-2 3,-4 3,-7l0 -86c0,-5 -1,-10 -4,-13 -3,-3 -8,-4 -13,-4l-7 0 0 -9zm285 118l5 8c-7,7 -15,10 -23,10 -6,0 -12,-2 -16,-5 -5,-4 -9,-10 -12,-18 -9,9 -17,15 -23,18 -7,4 -15,5 -25,5 -13,0 -23,-3 -30,-9 -7,-5 -11,-13 -11,-22 0,-14 8,-25 24,-34 16,-9 38,-15 64,-18l0 -20c0,-7 -3,-13 -8,-19 -6,-5 -13,-7 -22,-7 -8,0 -15,2 -21,5 -4,3 -7,5 -7,7 0,2 2,4 4,7 3,4 4,7 4,10 0,4 -1,8 -4,11 -3,2 -6,4 -11,4 -4,0 -8,-2 -12,-5 -3,-3 -4,-8 -4,-13 0,-9 5,-17 16,-25 10,-8 24,-12 41,-12 16,0 28,4 36,10 8,7 12,16 12,25l0 73c0,6 1,11 3,14 2,3 5,4 8,4 4,0 8,-1 12,-4zm-47 -56c-23,3 -40,9 -50,16 -8,6 -11,14 -11,24 0,7 2,13 5,17 4,4 9,6 15,6 12,0 21,-4 29,-13 8,-8 12,-19 12,-31l0 -19zm87 -141l0 192c0,2 1,4 3,6 2,2 5,3 8,3l14 0 0 10 -75 0 0 -10 14 0c4,0 7,-1 9,-3 2,-2 3,-5 3,-9l0 -161c0,-5 -1,-8 -3,-10 -4,-3 -8,-5 -13,-5l-12 0 0 -10 52 -3z"/>
  <path class="fil0" d="M5029 2243l55 0c11,0 19,2 25,7 6,5 9,11 9,19 0,5 -1,9 -4,12 -2,4 -5,7 -10,9 -4,2 -11,4 -21,5 7,2 12,4 15,5 2,2 4,4 6,7 2,3 3,9 5,18 2,6 3,10 5,13 1,1 3,2 4,2 1,0 3,-1 4,-3 1,-2 2,-6 2,-12l5 0c-1,17 -7,25 -18,25 -3,0 -6,-1 -9,-3 -2,-2 -4,-4 -6,-8 -1,-2 -2,-9 -3,-20 -1,-6 -2,-11 -3,-14 -2,-2 -4,-4 -8,-6 -3,-2 -7,-2 -11,-2l-9 0 0 41c0,2 0,3 1,4 1,1 3,1 5,1l11 0 0 6 -50 0 0 -6 11 0c2,0 4,0 5,-1 1,-1 2,-2 2,-4l0 -84c0,-2 -1,-4 -2,-5 -1,0 -3,-1 -5,-1l-11 0 0 -5zm33 48l12 0c9,0 15,-1 20,-4 5,-3 7,-9 7,-17 0,-6 -1,-10 -2,-13 -2,-4 -5,-6 -7,-7 -3,-1 -9,-2 -18,-2 -5,0 -9,0 -10,1 -2,1 -2,2 -2,4l0 38zm133 25l-48 0c0,10 2,17 6,21 4,5 9,7 15,7 10,0 17,-5 23,-16l5 2c-7,14 -18,21 -31,21 -9,0 -16,-4 -22,-10 -7,-7 -10,-15 -10,-25 0,-11 3,-20 9,-26 6,-7 14,-10 23,-10 6,0 12,1 17,5 4,3 8,8 10,14 2,4 3,10 3,17zm-48 -6l29 0c2,0 3,0 4,-1 1,-2 1,-3 1,-6 0,-6 -1,-10 -4,-14 -4,-3 -8,-5 -12,-5 -5,0 -9,2 -13,6 -3,5 -5,12 -5,20zm105 19l5 1c-4,14 -12,21 -25,21 -9,0 -17,-3 -23,-10 -6,-6 -9,-14 -9,-24 0,-12 4,-21 10,-28 7,-6 14,-9 23,-9 7,0 12,1 17,5 4,4 6,8 6,12 0,3 -1,5 -2,7 -2,2 -4,2 -6,2 -2,0 -4,0 -6,-2 -1,-1 -2,-3 -2,-5 0,-2 1,-4 3,-6 0,-1 1,-2 1,-2 0,-2 -1,-3 -3,-4 -2,-2 -4,-2 -8,-2 -5,0 -10,2 -13,6 -4,6 -6,14 -6,24 0,10 2,17 5,22 4,5 9,8 15,8 8,0 14,-6 18,-16zm27 -88c2,0 4,1 6,3 1,1 2,3 2,5 0,3 -1,5 -2,6 -2,2 -4,2 -6,2 -2,0 -4,0 -6,-2 -1,-2 -2,-3 -2,-6 0,-2 1,-4 3,-5 1,-2 3,-3 5,-3zm-19 40l27 0 0 58c0,1 1,2 1,3 2,1 3,1 5,1l7 0 0 6 -38 0 0 -6 7 0c2,0 4,0 5,-1 1,-1 1,-3 1,-5l0 -42c0,-3 -1,-5 -2,-6 -2,-1 -4,-2 -7,-2l-6 0 0 -6zm65 -1c1,5 1,10 1,15 4,-6 7,-9 11,-11 3,-3 7,-4 12,-4 4,0 9,2 13,5 4,2 7,6 10,12 3,5 4,12 4,18 0,11 -3,20 -10,27 -5,6 -11,9 -19,9 -4,0 -8,-1 -11,-4 -4,-2 -6,-5 -9,-9l0 27c0,2 0,4 1,5 2,1 3,1 6,1l5 0 0 5 -36 0 0 -5 5 0c2,0 4,0 5,-1 1,-1 2,-2 2,-4l0 -70c0,-4 -1,-6 -3,-7 -1,-2 -5,-3 -9,-3l0 -5 22 -1zm20 7c-5,0 -9,2 -13,7 -3,5 -5,12 -5,22 0,10 1,17 5,21 3,5 8,7 13,7 5,0 9,-2 12,-6 3,-5 5,-12 5,-22 0,-11 -1,-18 -5,-23 -3,-4 -7,-6 -12,-6zm101 29l-48 0c0,10 2,17 6,21 4,5 9,7 15,7 10,0 17,-5 23,-16l5 2c-7,14 -18,21 -31,21 -9,0 -16,-4 -22,-10 -7,-7 -10,-15 -10,-25 0,-11 3,-20 9,-26 6,-7 14,-10 23,-10 6,0 12,1 17,5 4,3 8,8 10,14 2,4 3,10 3,17zm-48 -6l29 0c2,0 3,0 4,-1 1,-2 1,-3 1,-6 0,-6 -1,-10 -5,-14 -3,-3 -7,-5 -11,-5 -5,0 -9,2 -13,6 -3,5 -5,12 -5,20z"/>
  <path class="fil0" d="M4550 1889l86 0 2 40 -5 0c-3,-23 -12,-35 -26,-35 -2,0 -4,0 -5,1 -1,1 -2,3 -2,5l0 85c0,2 1,3 2,4 1,0 2,1 5,1l10 0 0 5 -49 0 0 -5 12 0c2,0 3,-1 4,-1 1,-1 1,-2 1,-4l0 -86c0,-1 0,-3 -2,-4 -1,-1 -2,-1 -5,-1 -7,0 -12,3 -17,10 -4,5 -7,14 -8,25l-6 0 3 -40zm162 99l3 4c-4,3 -8,5 -12,5 -3,0 -6,-1 -8,-2 -2,-2 -4,-5 -6,-10 -5,5 -9,8 -12,10 -3,1 -7,2 -12,2 -7,0 -12,-1 -16,-4 -4,-3 -5,-7 -5,-12 0,-7 4,-12 12,-17 8,-5 19,-8 33,-9l0 -10c0,-4 -2,-7 -5,-10 -3,-2 -6,-3 -11,-3 -4,0 -8,0 -11,2 -2,1 -3,3 -3,4 0,1 1,2 2,3 1,2 2,4 2,5 0,3 -1,4 -2,6 -1,1 -3,2 -6,2 -2,0 -4,-1 -6,-3 -1,-1 -2,-3 -2,-6 0,-5 3,-9 8,-13 5,-4 12,-6 21,-6 8,0 14,2 18,5 5,4 7,8 7,13l0 37c0,3 0,5 1,7 1,1 3,2 4,2 2,0 4,-1 6,-2zm-23 -29c-13,2 -21,5 -26,9 -4,3 -6,7 -6,12 0,4 1,6 3,9 2,2 5,3 8,3 5,0 10,-3 14,-7 4,-4 7,-9 7,-16l0 -10zm47 -71c2,0 4,1 6,2 1,2 2,4 2,6 0,2 -1,4 -2,6 -2,1 -4,2 -6,2 -2,0 -4,-1 -6,-2 -1,-2 -2,-4 -2,-6 0,-2 1,-4 3,-6 1,-1 3,-2 5,-2zm-19 40l27 -1 0 58c0,2 1,3 1,3 1,1 3,2 5,2l7 0 0 5 -38 0 0 -5 7 0c2,0 4,-1 5,-2 1,-1 1,-2 1,-4l0 -42c0,-3 -1,-5 -2,-7 -2,-1 -4,-2 -7,-2l-6 0 0 -5zm42 0l30 0 0 5 -4 0c-2,0 -3,0 -4,1 -1,0 -2,1 -2,2 0,1 1,2 1,4l15 38 13 -36c-1,-4 -3,-7 -4,-8 -2,-1 -4,-1 -8,-1l0 -5 33 0 0 5 -3 0c-2,0 -4,0 -5,1 -1,1 -2,1 -2,3 0,0 1,1 1,3l15 38 13 -34c0,-2 1,-4 1,-6 0,-1 -1,-3 -2,-4 -1,0 -4,-1 -7,-1l0 -5 26 0 0 5c-3,1 -6,2 -7,3 -2,2 -3,4 -5,7l-19 54 -4 0 -19 -46 -17 46 -4 0 -24 -59c-1,-2 -2,-3 -3,-4 -1,-1 -2,-1 -5,-1l0 -5zm182 60l2 4c-3,3 -7,5 -11,5 -4,0 -6,-1 -9,-2 -2,-2 -4,-5 -5,-10 -5,5 -9,8 -12,10 -4,1 -8,2 -13,2 -7,0 -12,-1 -15,-4 -4,-3 -6,-7 -6,-12 0,-7 4,-12 13,-17 8,-5 19,-8 32,-9l0 -10c0,-4 -1,-7 -4,-10 -3,-2 -7,-3 -11,-3 -5,0 -8,0 -11,2 -2,1 -3,3 -3,4 0,1 0,2 1,3 2,2 3,4 3,5 0,3 -1,4 -3,6 -1,1 -3,2 -5,2 -2,0 -4,-1 -6,-3 -2,-1 -2,-3 -2,-6 0,-5 2,-9 8,-13 5,-4 12,-6 21,-6 8,0 14,2 18,5 4,4 6,8 6,13l0 37c0,3 1,5 2,7 1,1 2,2 4,2 2,0 4,-1 6,-2zm-24 -29c-12,2 -21,5 -26,9 -3,3 -5,7 -5,12 0,4 1,6 3,9 2,2 4,3 7,3 6,0 11,-3 15,-7 4,-4 6,-9 6,-16l0 -10zm30 -31l22 -1c1,4 2,9 2,14 3,-4 7,-8 11,-11 4,-2 9,-3 14,-3 4,0 8,1 11,2 3,2 6,5 7,9 2,3 3,8 3,12l0 33c0,3 1,4 2,5 1,1 3,2 5,2l5 0 0 5 -35 0 0 -5 3 0c3,0 5,-1 7,-2 1,-1 1,-2 1,-4l0 -29c0,-6 -1,-11 -2,-14 -3,-4 -7,-6 -13,-6 -5,0 -10,2 -13,6 -4,5 -6,10 -6,17l0 25c0,3 1,4 2,5 1,1 3,2 6,2l4 0 0 5 -35 0 0 -5 4 0c3,0 5,-1 6,-2 1,-1 2,-2 2,-3l0 -44c0,-3 -1,-5 -3,-6 -1,-2 -4,-2 -6,-2l-4 0 0 -5z"/>
 </g>
</svg>
