<?xml version="1.0" encoding="UTF-8"?>
<!DOCTYPE svg PUBLIC "-//W3C//DTD SVG 1.1//EN" "http://www.w3.org/Graphics/SVG/1.1/DTD/svg11.dtd">
<!-- Creator: CorelDRAW X7 -->
<svg xmlns="http://www.w3.org/2000/svg" xml:space="preserve" width="81.2798mm" height="42.3332mm" version="1.1" style="shape-rendering:geometricPrecision; text-rendering:geometricPrecision; image-rendering:optimizeQuality; fill-rule:evenodd; clip-rule:evenodd"
viewBox="0 0 8128 4233"
 xmlns:xlink="http://www.w3.org/1999/xlink">
 <defs>
  <style type="text/css">
   <![CDATA[
    .fil0 {fill:#474443}
   ]]>
  </style>
 </defs>
 <g id="Layer_x0020_1">
  <metadata id="CorelCorpID_0Corel-Layer"/>
  <path class="fil0" d="M7008 2019l0 176c0,2 1,4 3,6 3,2 6,3 10,3l27 0 0 10 -101 0 0 -10 23 0c5,0 9,-1 11,-4 3,-2 4,-5 4,-9l0 -133c0,-3 -1,-5 -3,-7 -3,-2 -5,-3 -9,-3l-31 0 0 -9c15,-2 27,-5 36,-8 9,-3 17,-7 24,-12l6 0zm113 -4c18,0 34,7 46,22 15,17 22,44 22,79 0,34 -6,59 -19,76 -13,17 -29,26 -48,26 -18,0 -33,-7 -45,-22 -15,-18 -23,-44 -23,-79 0,-33 8,-59 22,-78 11,-16 26,-24 45,-24zm1 10c-13,0 -22,6 -29,18 -7,12 -11,37 -11,74 0,36 4,61 11,73 7,12 17,18 29,18 12,0 22,-5 28,-17 8,-13 12,-37 12,-73 0,-37 -4,-61 -11,-74 -7,-12 -17,-19 -29,-19zm89 158c4,0 8,2 12,6 3,3 4,7 4,12 0,5 -1,9 -4,12 -4,3 -8,5 -13,5 -4,0 -8,-2 -12,-5 -3,-3 -5,-7 -5,-12 0,-5 2,-9 5,-12 4,-4 8,-6 13,-6zm89 -168c19,0 34,7 46,22 15,17 23,44 23,79 0,34 -7,59 -20,76 -13,17 -29,26 -48,26 -17,0 -33,-7 -45,-22 -15,-18 -22,-44 -22,-79 0,-33 7,-59 21,-78 12,-16 27,-24 45,-24zm1 10c-12,0 -22,6 -29,18 -7,12 -10,37 -10,74 0,36 3,61 10,73 8,12 17,18 29,18 13,0 22,-5 29,-17 8,-13 11,-37 11,-73 0,-37 -3,-61 -11,-74 -7,-12 -17,-19 -29,-19zm129 -10c19,0 34,7 46,22 15,17 23,44 23,79 0,34 -7,59 -20,76 -13,17 -29,26 -48,26 -18,0 -33,-7 -45,-22 -15,-18 -22,-44 -22,-79 0,-33 7,-59 21,-78 12,-16 27,-24 45,-24zm1 10c-12,0 -22,6 -29,18 -7,12 -10,37 -10,74 0,36 3,61 10,73 8,12 17,18 29,18 13,0 22,-5 29,-17 7,-13 11,-37 11,-73 0,-37 -3,-61 -11,-74 -7,-12 -17,-19 -29,-19zm129 -10c19,0 34,7 46,22 15,17 23,44 23,79 0,34 -7,59 -20,76 -13,17 -29,26 -48,26 -18,0 -33,-7 -45,-22 -15,-18 -22,-44 -22,-79 0,-33 7,-59 21,-78 11,-16 27,-24 45,-24zm1 10c-12,0 -22,6 -29,18 -7,12 -10,37 -10,74 0,36 3,61 10,73 8,12 17,18 29,18 13,0 22,-5 29,-17 7,-13 11,-37 11,-73 0,-37 -3,-61 -11,-74 -7,-12 -17,-19 -29,-19zm56 111l50 0 0 -50 14 0 0 50 50 0 0 14 -50 0 0 50 -14 0 0 -50 -50 0 0 -14zm106 0l50 0 0 -50 14 0 0 50 50 0 0 14 -50 0 0 50 -14 0 0 -50 -50 0 0 -14z"/>
  <path class="fil0" d="M6928 1889l86 0 2 40 -5 0c-3,-23 -11,-35 -25,-35 -3,0 -5,0 -6,1 -1,1 -1,3 -1,5l0 85c0,2 0,3 1,4 1,0 3,1 5,1l11 0 0 5 -49 0 0 -5 12 0c1,0 3,-1 3,-1 1,-1 2,-2 2,-4l0 -86c0,-1 -1,-3 -2,-4 -1,-1 -3,-1 -5,-1 -7,0 -13,3 -17,10 -4,5 -7,14 -9,25l-5 0 2 -40zm155 73l-48 0c0,10 2,18 6,22 4,5 9,7 15,7 10,0 17,-5 23,-16l4 2c-7,13 -17,20 -30,20 -9,0 -16,-3 -23,-10 -6,-6 -9,-14 -9,-24 0,-11 3,-20 9,-27 6,-7 14,-10 23,-10 6,0 12,2 17,5 4,3 8,8 10,14 2,5 3,10 3,17zm-48 -5l29 0c2,0 3,-1 4,-2 1,-1 1,-3 1,-6 0,-5 -1,-9 -5,-13 -3,-4 -7,-6 -11,-6 -5,0 -9,3 -13,7 -3,4 -5,11 -5,20zm79 -69l0 97c0,2 1,3 1,3 2,1 3,2 5,2l7 0 0 5 -38 0 0 -5 7 0c2,0 3,-1 4,-2 2,-1 2,-2 2,-4l0 -82c0,-2 -1,-4 -2,-5 -2,-2 -4,-2 -6,-2l-7 0 0 -6 27 -1zm87 100l3 4c-4,3 -7,5 -12,5 -3,0 -6,-1 -8,-2 -2,-2 -4,-5 -6,-10 -4,5 -8,8 -12,10 -3,1 -7,2 -12,2 -7,0 -12,-1 -16,-4 -3,-3 -5,-7 -5,-12 0,-7 4,-12 12,-17 8,-5 19,-8 33,-9l0 -10c0,-4 -2,-7 -5,-10 -3,-2 -6,-3 -11,-3 -4,0 -7,0 -11,2 -2,1 -3,3 -3,4 0,1 1,2 2,3 1,2 2,4 2,5 0,3 -1,4 -2,6 -1,1 -3,2 -5,2 -3,0 -5,-1 -6,-3 -2,-1 -3,-3 -3,-6 0,-5 3,-9 8,-13 6,-4 13,-6 21,-6 8,0 14,2 19,5 4,4 6,8 6,13l0 37c0,3 0,5 1,7 2,1 3,2 5,2 1,0 3,-1 5,-2zm-23 -29c-12,2 -21,5 -26,9 -4,3 -6,7 -6,12 0,4 1,6 3,9 2,2 5,3 8,3 6,0 10,-3 15,-7 4,-4 6,-9 6,-16l0 -10zm28 -70l25 -1 0 52c4,-5 8,-8 12,-11 4,-2 8,-3 13,-3 4,0 8,1 11,3 3,2 5,5 7,9 2,4 3,9 3,14l0 32c0,2 1,4 2,4 1,1 2,2 5,2l5 0 0 5 -36 0 0 -5 4 0c3,0 5,-1 7,-2 1,-1 1,-2 1,-4l0 -32c0,-6 -1,-10 -4,-13 -3,-3 -6,-5 -10,-5 -4,0 -7,1 -9,3 -3,2 -6,4 -8,8 -2,4 -3,7 -3,11l0 27c0,3 1,4 2,5 1,1 2,2 5,2l6 0 0 5 -36 0 0 -5 4 0c3,0 5,-1 6,-2 1,-1 2,-2 2,-5l0 -80c0,-3 -1,-5 -3,-6 -1,-2 -3,-2 -6,-2l-5 0 0 -6zm145 12l5 0 0 27 22 0 0 7 -22 0 0 43c0,4 1,6 3,8 2,2 4,3 7,3 3,0 6,-1 8,-4 2,-3 3,-8 4,-15l5 0c-1,9 -3,15 -6,20 -4,4 -9,6 -15,6 -6,0 -10,-1 -13,-4 -3,-3 -5,-7 -5,-12l0 -45 -12 0 0 -5c6,-1 10,-4 13,-7 4,-5 6,-13 6,-22zm98 61l-48 0c0,10 2,18 6,22 4,5 9,7 16,7 9,0 16,-5 22,-16l5 2c-7,13 -17,20 -31,20 -8,0 -16,-3 -22,-10 -6,-6 -9,-14 -9,-24 0,-11 3,-20 9,-27 6,-7 13,-10 22,-10 6,0 12,2 17,5 5,3 8,8 11,14 1,5 2,10 2,17zm-48 -5l29 0c2,0 3,-1 4,-2 1,-1 2,-3 2,-6 0,-5 -2,-9 -5,-13 -4,-4 -7,-6 -12,-6 -5,0 -9,3 -12,7 -4,4 -6,11 -6,20zm53 -29l24 -1 0 27c3,-9 6,-16 10,-20 3,-5 8,-7 13,-7 4,0 7,1 9,3 2,2 3,5 3,9 0,3 -1,5 -2,7 -2,2 -3,3 -6,3 -2,0 -4,-1 -5,-3 -1,-1 -2,-3 -2,-5 0,-2 1,-3 1,-5 1,-1 1,-2 1,-2 0,-1 0,-1 -1,-1 -2,0 -4,1 -7,3 -3,4 -6,8 -8,14 -2,8 -4,15 -4,20l0 15c0,1 1,3 2,4 1,0 3,1 6,1l8 0 0 5 -42 0 0 -5 7 0c2,0 4,-1 5,-1 1,-1 2,-2 2,-4l0 -42c0,-4 -1,-6 -2,-8 -2,-1 -4,-2 -6,-2l-6 0 0 -5zm80 -40c2,0 4,1 6,2 1,2 2,4 2,6 0,2 -1,4 -2,6 -2,1 -4,2 -6,2 -2,0 -4,-1 -6,-3 -1,-1 -2,-3 -2,-5 0,-2 1,-4 2,-6 2,-1 4,-2 6,-2zm7 39l0 64c0,10 -3,18 -8,24 -5,6 -10,9 -17,9 -3,0 -5,-1 -7,-2 -2,-2 -3,-4 -3,-7 0,-2 1,-4 2,-5 2,-2 4,-2 6,-2 3,0 5,2 6,6 1,1 1,2 1,3 1,0 1,0 2,0 1,0 1,0 2,-1 1,-1 2,-3 3,-6 1,-4 1,-8 1,-12l0 -57c0,-2 -1,-4 -2,-6 -2,-1 -4,-2 -7,-2l-6 0 0 -5 27 -1zm37 0l0 44c0,6 1,10 4,13 2,3 6,5 10,5 6,0 10,-3 14,-7 4,-4 6,-10 6,-16l0 -26c0,-2 -1,-4 -3,-5 -1,-1 -5,-2 -9,-2l0 -5 23 -1 0 55c0,3 1,4 2,6 2,1 4,2 6,2l5 0 0 5 -23 0 -1 -13c-4,5 -8,8 -12,11 -5,2 -9,3 -13,3 -6,0 -11,-2 -15,-6 -4,-4 -6,-11 -6,-20l0 -30c0,-2 -1,-4 -3,-5 -2,-1 -5,-2 -9,-2l0 -5 24 -1zm133 61l2 4c-3,3 -7,5 -11,5 -4,0 -6,-1 -9,-2 -2,-2 -4,-5 -6,-10 -4,5 -8,8 -12,10 -3,1 -7,2 -12,2 -7,0 -12,-1 -16,-4 -3,-3 -5,-7 -5,-12 0,-7 4,-12 12,-17 9,-5 19,-8 33,-9l0 -10c0,-4 -1,-7 -4,-10 -3,-2 -7,-3 -11,-3 -5,0 -8,0 -11,2 -2,1 -3,3 -3,4 0,1 0,2 1,3 2,2 2,4 2,5 0,3 0,4 -2,6 -1,1 -3,2 -5,2 -3,0 -4,-1 -6,-3 -2,-1 -2,-3 -2,-6 0,-5 2,-9 8,-13 5,-4 12,-6 21,-6 8,0 14,2 18,5 4,4 6,8 6,13l0 37c0,3 1,5 2,7 1,1 2,2 4,2 2,0 4,-1 6,-2zm-24 -29c-12,2 -21,5 -26,9 -3,3 -5,7 -5,12 0,4 1,6 3,9 2,2 4,3 7,3 6,0 11,-3 15,-7 4,-4 6,-9 6,-16l0 -10zm55 -71l0 97c0,2 1,3 2,3 1,1 2,2 4,2l7 0 0 5 -38 0 0 -5 7 0c2,0 3,-1 5,-2 1,-1 1,-2 1,-4l0 -82c0,-2 0,-4 -2,-5 -2,-2 -4,-2 -6,-2l-6 0 0 -6 26 -1z"/>
  <path class="fil0" d="M7467 2240l52 0c12,0 21,2 27,8 6,5 10,12 10,21 0,9 -3,15 -9,20 -8,6 -18,9 -29,9l-19 0 0 36c0,2 0,4 1,5 2,1 3,1 6,1l12 0 0 6 -51 0 0 -6 10 0c2,0 4,0 5,-1 1,-1 1,-2 1,-3l0 -85c0,-2 0,-3 -1,-4 -2,-1 -4,-2 -7,-2l-8 0 0 -5zm32 53l14 0c9,0 16,-2 20,-6 4,-4 6,-10 6,-19 0,-6 -1,-11 -3,-14 -1,-3 -4,-6 -8,-7 -3,-2 -9,-3 -17,-3 -5,0 -9,1 -10,2 -2,1 -2,3 -2,5l0 42zm131 45l3 4c-4,4 -8,6 -12,6 -3,0 -6,-1 -8,-3 -2,-2 -4,-5 -6,-9 -5,5 -9,8 -12,9 -3,2 -8,3 -12,3 -7,0 -12,-2 -16,-5 -4,-3 -5,-6 -5,-11 0,-7 4,-13 12,-17 8,-5 19,-8 32,-10l0 -10c0,-3 -1,-6 -4,-9 -3,-3 -7,-4 -11,-4 -4,0 -8,1 -11,3 -2,1 -3,2 -3,3 0,1 1,2 2,4 1,2 2,3 2,5 0,2 -1,4 -2,5 -2,2 -3,2 -6,2 -2,0 -4,-1 -6,-2 -1,-2 -2,-4 -2,-6 0,-5 3,-10 8,-13 5,-4 12,-6 21,-6 8,0 14,1 18,5 5,3 7,8 7,13l0 36c0,3 0,6 1,7 1,2 3,3 4,3 2,0 4,-1 6,-3zm-24 -28c-12,2 -20,4 -25,8 -4,3 -6,7 -6,12 0,4 1,7 3,9 2,2 5,3 8,3 5,0 10,-2 14,-6 4,-5 6,-10 6,-16l0 -10zm29 -70l26 -1 0 73 22 -19c2,-2 3,-4 3,-5 0,-1 -1,-2 -2,-3 -2,-1 -5,-1 -9,-1l0 -5 36 0 0 5c-7,0 -13,2 -16,5l-16 14 25 34c2,2 4,3 8,3l4 0 0 6 -37 0 0 -6 4 0c3,0 4,0 5,0 1,-1 2,-1 2,-2 0,-1 0,-1 -1,-2l-18 -26 -10 9 0 17c0,1 0,2 1,3 2,1 3,1 6,1l4 0 0 6 -36 0 0 -6 6 0c2,0 4,0 5,-1 1,-1 2,-2 2,-4l0 -83c0,-2 -1,-4 -2,-5 -2,-1 -5,-2 -8,-2l-4 0 0 -5zm147 73l-48 0c0,10 2,17 6,21 4,5 9,7 15,7 10,0 17,-5 23,-16l4 2c-7,14 -17,21 -30,21 -9,0 -16,-3 -23,-10 -6,-6 -9,-15 -9,-25 0,-11 3,-20 9,-26 6,-7 14,-10 23,-10 6,0 12,1 17,5 4,3 8,8 10,14 2,4 3,10 3,17zm-48 -5l29 0c2,0 3,-1 4,-2 1,-1 1,-3 1,-6 0,-5 -1,-10 -5,-14 -3,-3 -7,-5 -11,-5 -5,0 -9,2 -13,7 -3,4 -5,11 -5,20zm72 -57l4 0 0 28 22 0 0 6 -22 0 0 43c0,4 1,7 3,9 2,2 4,3 7,3 3,0 6,-2 8,-5 2,-3 4,-8 4,-15l5 0c-1,9 -3,16 -6,20 -4,5 -9,7 -15,7 -6,0 -10,-2 -13,-5 -3,-3 -5,-7 -5,-12l0 -45 -11 0 0 -5c5,-1 9,-3 12,-7 4,-5 6,-12 7,-22z"/>
 </g>
</svg>
