<svg width="1616" height="685" xmlns="http://www.w3.org/2000/svg">
 <defs>
  <style type="text/css">
   <![CDATA[
    .fil0 {fill:#1A1A1A}
    .fil1 {fill:white}
   ]]>
  </style>
 </defs>
 <g>
  <title>Layer 1</title>
  <g id="Layer_x0020_1">
   <metadata transform="translate(0,-376) translate(-3462,0) " id="CorelCorpID_0Corel-Layer"/>
   <path id="svg_1" d="m1617,0l0,595c0,49 -40,88 -88,88l-1441,0c-48,0 -88,-39 -88,-88l0,-595l1617,0z" class="fil0"/>
   <g id="_397275696">
    <path id="svg_2" d="m176,308l0,61l14,0c15,0 26,-3 32,-8c7,-4 10,-12 10,-23c0,-10 -3,-17 -10,-22c-7,-5 -18,-8 -32,-8l-14,0zm0,-66l0,52l16,0c11,0 20,-3 26,-7c5,-4 8,-11 8,-19c0,-9 -3,-15 -8,-20c-6,-4 -15,-6 -26,-6l-16,0zm-38,143l0,-16l17,0l0,-127l-17,0l0,-16l55,0c18,0 31,3 40,10c10,7 14,17 14,30c0,8 -2,15 -7,21c-5,6 -12,10 -21,12c12,4 21,10 26,16c6,6 9,15 9,25c0,14 -5,25 -14,33c-9,8 -22,12 -38,12l-64,0zm133,0l0,-16l17,0l0,-127l-17,0l0,-16l58,0l0,16l-20,0l0,127l53,0l0,-31l19,0l0,47l-110,0zm164,-70l45,0l-19,-55c0,0 0,-1 0,-2c-2,-4 -3,-9 -4,-12c0,2 -1,4 -1,6c-1,2 -1,5 -2,8l-19,55zm1,54l0,16l-53,0l0,-16l14,0l45,-127l-19,0l0,-16l72,0l0,16l-19,0l43,127l15,0l0,16l-56,0l0,-16l19,0l-13,-38l-54,0l-13,38l19,0zm245,-34c-4,16 -12,29 -24,39c-12,9 -27,14 -45,14c-23,0 -43,-8 -58,-24c-15,-15 -23,-35 -23,-59c0,-23 8,-43 23,-59c15,-15 34,-23 56,-23c11,0 20,2 28,5c8,3 15,7 20,13l0,-15l17,0l0,49l-16,0c-4,-11 -9,-20 -17,-25c-8,-6 -18,-9 -30,-9c-18,0 -32,6 -43,18c-11,11 -16,27 -16,46c0,19 5,35 17,46c11,12 25,18 43,18c12,0 21,-3 29,-8c8,-6 15,-15 19,-26l20,0zm53,34l17,0l0,16l-55,0l0,-16l17,0l0,-127l-17,0l0,-16l55,0l0,16l-17,0l0,60l55,-60l-16,0l0,-16l55,0l0,16l-15,0l-56,61l58,66l16,0l0,16l-58,0l0,-16l16,0l-55,-63l0,63zm101,16l0,-16l17,0l0,-127l-17,0l0,-16l58,0l0,16l-20,0l0,127l53,0l0,-31l19,0l0,47l-110,0zm164,-70l45,0l-19,-55c0,0 0,-1 0,-2c-2,-4 -3,-9 -3,-12c-1,2 -1,4 -2,6c0,2 -1,5 -2,8l-19,55zm2,54l0,16l-54,0l0,-16l14,0l45,-127l-19,0l0,-16l72,0l0,16l-19,0l43,127l15,0l0,16l-56,0l0,-16l19,0l-13,-38l-54,0l-13,38l20,0zm138,-61l0,61l15,0c14,0 25,-3 31,-8c7,-4 10,-12 10,-23c0,-10 -3,-17 -10,-22c-7,-5 -18,-8 -31,-8l-15,0zm0,-66l0,52l16,0c12,0 20,-3 26,-7c6,-4 8,-11 8,-19c0,-9 -2,-15 -8,-20c-6,-4 -14,-6 -26,-6l-16,0zm-38,143l0,-16l18,0l0,-127l-18,0l0,-16l55,0c18,0 31,3 41,10c9,7 13,17 13,30c0,8 -2,15 -7,21c-5,6 -12,10 -21,12c12,4 21,10 27,16c5,6 8,15 8,25c0,14 -5,25 -14,33c-9,8 -22,12 -38,12l-64,0zm133,0l0,-16l17,0l0,-127l-17,0l0,-16l123,0l0,43l-19,0l0,-27l-66,0l0,50l55,0l0,18l-55,0l0,59l66,0l0,-31l19,0l0,47l-123,0zm135,0l0,-16l17,0l0,-127l-17,0l0,-16l58,0l0,16l-20,0l0,127l53,0l0,-31l19,0l0,47l-110,0z" class="fil1"/>
    <path id="svg_3" d="m587,459l2,-9l54,0l6,20l-9,2c-1,-2 -2,-4 -3,-5c-1,-2 -3,-3 -4,-4c-2,-1 -4,-2 -6,-2c-2,-1 -4,-1 -7,-1l-9,0l-4,17l2,0c3,0 4,0 6,0c1,-1 2,-1 3,-2c1,-1 1,-2 2,-4c0,0 0,-2 1,-4l9,0l-7,29l-9,0c1,-3 1,-5 1,-6c0,-1 0,-2 -1,-3c-1,-1 -3,-1 -6,-1l-3,0l-4,16l0,1c0,1 0,1 0,2c0,0 0,1 1,1c0,0 1,0 3,0l5,0c5,0 9,-1 12,-1c3,-2 7,-4 9,-6c3,-3 5,-7 7,-10l9,3l-13,24l-60,0l2,-9l2,0c3,0 4,0 5,-1c1,-1 2,-3 2,-5l8,-36c1,-2 1,-3 1,-4c0,0 0,-1 0,-1c-1,0 -1,-1 -2,-1c0,0 -1,0 -2,0l-3,0zm92,8c4,0 8,1 11,2c4,1 6,3 7,4c2,2 2,4 2,5c0,2 0,3 -1,5c-2,1 -3,1 -5,1c-1,0 -2,0 -2,0c-1,0 -2,-1 -3,-1c0,0 -1,-1 -2,-2c-2,-2 -2,-2 -3,-3c-1,0 -2,-1 -3,-1c-1,0 -2,0 -3,0c-2,0 -4,0 -5,1c-1,0 -1,1 -1,2c0,1 0,2 0,2c1,1 2,2 4,2c6,2 11,4 13,5c3,2 5,3 6,5c2,2 2,4 2,7c0,3 -1,5 -2,8c-2,2 -5,4 -8,6c-4,2 -8,2 -14,2c-7,0 -14,-1 -18,-4c-4,-2 -6,-5 -6,-8c0,-2 1,-3 2,-4c2,-1 3,-2 5,-2c1,0 1,0 2,0c1,1 2,1 2,2c1,0 2,1 3,2c1,1 2,2 2,2c2,2 3,2 4,3c2,0 3,0 5,0c3,0 5,0 6,-1c2,-1 2,-2 2,-3c0,-1 0,-2 -1,-3c-1,0 -4,-2 -9,-3c-6,-2 -10,-4 -12,-7c-2,-2 -3,-5 -3,-8c0,-3 0,-5 2,-8c2,-2 4,-4 8,-5c3,-2 8,-3 13,-3zm44,-15l11,0l-4,17l14,0l-2,9l-14,0l-5,21c0,2 0,4 0,5c0,1 0,1 0,2c1,0 2,1 3,1c1,0 3,-1 4,-2c2,-1 4,-3 7,-6l6,6c-4,5 -8,8 -11,10c-3,1 -6,2 -10,2c-4,0 -8,-1 -10,-3c-3,-3 -4,-6 -4,-9c0,-2 0,-4 1,-7l4,-20l-10,0l2,-8c3,-1 5,-2 8,-3c2,-2 4,-4 6,-6c2,-3 3,-6 4,-9zm34,47c1,0 3,1 4,1c1,1 3,2 3,4c1,1 1,2 1,4c0,1 0,3 -1,4c-1,2 -2,3 -4,4c-1,1 -3,1 -5,1c-2,0 -4,0 -6,-2c-1,-1 -2,-3 -2,-6c0,-1 1,-3 1,-5c1,-1 3,-2 4,-3c2,-1 3,-2 5,-2zm38,-22l-9,-1c0,-6 1,-11 3,-14c2,-4 5,-7 10,-10c4,-2 10,-4 16,-4c6,0 11,1 14,3c4,2 7,4 9,7c2,3 3,6 3,9c0,3 -1,5 -2,7c-1,3 -2,5 -5,7c-2,3 -5,5 -8,8c-4,2 -7,4 -10,5c0,1 -1,1 -1,1l-13,7l15,0c2,0 4,0 5,0c1,0 2,0 2,-1c1,0 2,-1 2,-2c0,-1 1,-2 2,-5l10,0l-9,25l-6,0l-1,-3l-45,0l2,-9c6,-3 13,-8 22,-14c9,-7 15,-11 18,-14c2,-2 3,-4 4,-5c1,-2 1,-3 1,-5c0,-3 -1,-5 -3,-6c-2,-2 -6,-3 -10,-3c-3,0 -6,0 -8,2c-2,1 -4,3 -6,5c-1,3 -1,6 -2,10zm90,-29c7,0 13,3 17,7c5,4 7,10 7,18c0,8 -2,16 -6,23c-3,8 -8,13 -13,16c-5,4 -11,5 -17,5c-6,0 -10,-1 -13,-3c-4,-2 -7,-4 -9,-8c-2,-4 -3,-8 -3,-13c0,-6 1,-12 4,-18c2,-6 4,-11 8,-15c3,-4 7,-7 11,-9c5,-2 9,-3 14,-3zm-1,11c-2,0 -3,0 -5,1c-2,1 -4,2 -5,4c-1,1 -3,4 -4,7c-2,4 -3,8 -4,13c-1,4 -2,8 -2,12c0,2 1,4 2,6c0,2 1,3 3,4c1,1 3,1 4,1c2,0 4,0 7,-2c2,-1 4,-3 5,-5c2,-4 4,-8 5,-14c2,-6 3,-11 3,-15c0,-3 -1,-5 -1,-7c-1,-2 -2,-3 -4,-4c-1,-1 -2,-1 -4,-1zm79,-11l-12,53c0,2 -1,3 -1,3c0,1 1,1 1,2c0,0 1,1 1,1c1,0 2,0 4,0l7,0l-2,9l-42,0l2,-9l6,0c2,0 4,0 5,0c0,0 1,-1 2,-1c0,0 1,-1 1,-1c0,-1 1,-2 1,-4l8,-37l-13,0l2,-10c7,0 16,-2 25,-6l5,0zm36,1l32,0c2,0 3,0 4,0c0,0 1,0 1,0c0,-1 1,-1 1,-2l6,0l-4,17l-33,0l-2,8c2,0 4,0 6,0c9,0 16,2 21,6c5,4 7,8 7,14c0,7 -3,13 -9,18c-5,5 -12,7 -21,7c-5,0 -10,-1 -14,-2c-4,-2 -7,-4 -9,-7c-2,-3 -3,-5 -3,-8c0,-1 0,-3 1,-4c0,-1 1,-2 2,-3c2,0 3,-1 4,-1c1,0 2,1 3,1c1,1 2,2 3,3c0,0 1,1 2,4c1,3 3,4 5,6c2,1 4,2 7,2c4,0 7,-2 10,-4c2,-2 3,-5 3,-8c0,-3 0,-5 -2,-6c-1,-2 -3,-4 -5,-5c-3,-1 -6,-1 -11,-1c-5,0 -10,0 -15,1l10,-36z" class="fil1"/>
    <rect id="svg_4" height="8.002" width="373.548" y="484" x="138" class="fil1"/>
    <rect id="svg_5" height="8.002" width="373.548" y="484" x="1105" class="fil1"/>
   </g>
  </g>
 </g>
</svg>
