<?xml version="1.0" encoding="UTF-8"?>
<!DOCTYPE svg PUBLIC "-//W3C//DTD SVG 1.1//EN" "http://www.w3.org/Graphics/SVG/1.1/DTD/svg11.dtd">
<!-- Creator: CorelDRAW X7 -->
<svg xmlns="http://www.w3.org/2000/svg" xml:space="preserve" width="84.6666mm" height="186.267mm" version="1.1" style="shape-rendering:geometricPrecision; text-rendering:geometricPrecision; image-rendering:optimizeQuality; fill-rule:evenodd; clip-rule:evenodd"
viewBox="0 0 8467 18627"
 xmlns:xlink="http://www.w3.org/1999/xlink">
 <defs>
  <style type="text/css">
   <![CDATA[
    .fil0 {fill:#1A1A1A}
    .fil1 {fill:white}
   ]]>
  </style>
 </defs>
 <g id="Layer_x0020_1">
  <metadata id="CorelCorpID_0Corel-Layer"/>
  <path class="fil0" d="M5079 376l0 595c0,49 -40,88 -88,88l-1441 0c-48,0 -88,-39 -88,-88l0 -595 1617 0z"/>
  <g id="_397275696">
   <path class="fil1" d="M3638 684l0 61 14 0c15,0 26,-3 32,-8 7,-4 10,-12 10,-23 0,-10 -3,-17 -10,-22 -7,-5 -18,-8 -32,-8l-14 0zm0 -66l0 52 16 0c11,0 20,-3 26,-7 5,-4 8,-11 8,-19 0,-9 -3,-15 -8,-20 -6,-4 -15,-6 -26,-6l-16 0zm-38 143l0 -16 17 0 0 -127 -17 0 0 -16 55 0c18,0 31,3 40,10 10,7 14,17 14,30 0,8 -2,15 -7,21 -5,6 -12,10 -21,12 12,4 21,10 26,16 6,6 9,15 9,25 0,14 -5,25 -14,33 -9,8 -22,12 -38,12l-64 0zm133 0l0 -16 17 0 0 -127 -17 0 0 -16 58 0 0 16 -20 0 0 127 53 0 0 -31 19 0 0 47 -110 0zm164 -70l45 0 -19 -55c0,0 0,-1 0,-2 -2,-4 -3,-9 -4,-12 0,2 -1,4 -1,6 -1,2 -1,5 -2,8l-19 55zm1 54l0 16 -53 0 0 -16 14 0 45 -127 -19 0 0 -16 72 0 0 16 -19 0 43 127 15 0 0 16 -56 0 0 -16 19 0 -13 -38 -54 0 -13 38 19 0zm245 -34c-4,16 -12,29 -24,39 -12,9 -27,14 -45,14 -23,0 -43,-8 -58,-24 -15,-15 -23,-35 -23,-59 0,-23 8,-43 23,-59 15,-15 34,-23 56,-23 11,0 20,2 28,5 8,3 15,7 20,13l0 -15 17 0 0 49 -16 0c-4,-11 -9,-20 -17,-25 -8,-6 -18,-9 -30,-9 -18,0 -32,6 -43,18 -11,11 -16,27 -16,46 0,19 5,35 17,46 11,12 25,18 43,18 12,0 21,-3 29,-8 8,-6 15,-15 19,-26l20 0zm53 34l17 0 0 16 -55 0 0 -16 17 0 0 -127 -17 0 0 -16 55 0 0 16 -17 0 0 60 55 -60 -16 0 0 -16 55 0 0 16 -15 0 -56 61 58 66 16 0 0 16 -58 0 0 -16 16 0 -55 -63 0 63zm101 16l0 -16 17 0 0 -127 -17 0 0 -16 58 0 0 16 -20 0 0 127 53 0 0 -31 19 0 0 47 -110 0zm164 -70l45 0 -19 -55c0,0 0,-1 0,-2 -2,-4 -3,-9 -3,-12 -1,2 -1,4 -2,6 0,2 -1,5 -2,8l-19 55zm2 54l0 16 -54 0 0 -16 14 0 45 -127 -19 0 0 -16 72 0 0 16 -19 0 43 127 15 0 0 16 -56 0 0 -16 19 0 -13 -38 -54 0 -13 38 20 0zm138 -61l0 61 15 0c14,0 25,-3 31,-8 7,-4 10,-12 10,-23 0,-10 -3,-17 -10,-22 -7,-5 -18,-8 -31,-8l-15 0zm0 -66l0 52 16 0c12,0 20,-3 26,-7 6,-4 8,-11 8,-19 0,-9 -2,-15 -8,-20 -6,-4 -14,-6 -26,-6l-16 0zm-38 143l0 -16 18 0 0 -127 -18 0 0 -16 55 0c18,0 31,3 41,10 9,7 13,17 13,30 0,8 -2,15 -7,21 -5,6 -12,10 -21,12 12,4 21,10 27,16 5,6 8,15 8,25 0,14 -5,25 -14,33 -9,8 -22,12 -38,12l-64 0zm133 0l0 -16 17 0 0 -127 -17 0 0 -16 123 0 0 43 -19 0 0 -27 -66 0 0 50 55 0 0 18 -55 0 0 59 66 0 0 -31 19 0 0 47 -123 0zm135 0l0 -16 17 0 0 -127 -17 0 0 -16 58 0 0 16 -20 0 0 127 53 0 0 -31 19 0 0 47 -110 0z"/>
   <path class="fil1" d="M4049 835l2 -9 54 0 6 20 -9 2c-1,-2 -2,-4 -3,-5 -1,-2 -3,-3 -4,-4 -2,-1 -4,-2 -6,-2 -2,-1 -4,-1 -7,-1l-9 0 -4 17 2 0c3,0 4,0 6,0 1,-1 2,-1 3,-2 1,-1 1,-2 2,-4 0,0 0,-2 1,-4l9 0 -7 29 -9 0c1,-3 1,-5 1,-6 0,-1 0,-2 -1,-3 -1,-1 -3,-1 -6,-1l-3 0 -4 16 0 1c0,1 0,1 0,2 0,0 0,1 1,1 0,0 1,0 3,0l5 0c5,0 9,-1 12,-1 3,-2 7,-4 9,-6 3,-3 5,-7 7,-10l9 3 -13 24 -60 0 2 -9 2 0c3,0 4,0 5,-1 1,-1 2,-3 2,-5l8 -36c1,-2 1,-3 1,-4 0,0 0,-1 0,-1 -1,0 -1,-1 -2,-1 0,0 -1,0 -2,0l-3 0zm92 8c4,0 8,1 11,2 4,1 6,3 7,4 2,2 2,4 2,5 0,2 0,3 -1,5 -2,1 -3,1 -5,1 -1,0 -2,0 -2,0 -1,0 -2,-1 -3,-1 0,0 -1,-1 -2,-2 -2,-2 -2,-2 -3,-3 -1,0 -2,-1 -3,-1 -1,0 -2,0 -3,0 -2,0 -4,0 -5,1 -1,0 -1,1 -1,2 0,1 0,2 0,2 1,1 2,2 4,2 6,2 11,4 13,5 3,2 5,3 6,5 2,2 2,4 2,7 0,3 -1,5 -2,8 -2,2 -5,4 -8,6 -4,2 -8,2 -14,2 -7,0 -14,-1 -18,-4 -4,-2 -6,-5 -6,-8 0,-2 1,-3 2,-4 2,-1 3,-2 5,-2 1,0 1,0 2,0 1,1 2,1 2,2 1,0 2,1 3,2 1,1 2,2 2,2 2,2 3,2 4,3 2,0 3,0 5,0 3,0 5,0 6,-1 2,-1 2,-2 2,-3 0,-1 0,-2 -1,-3 -1,0 -4,-2 -9,-3 -6,-2 -10,-4 -12,-7 -2,-2 -3,-5 -3,-8 0,-3 0,-5 2,-8 2,-2 4,-4 8,-5 3,-2 8,-3 13,-3zm44 -15l11 0 -4 17 14 0 -2 9 -14 0 -5 21c0,2 0,4 0,5 0,1 0,1 0,2 1,0 2,1 3,1 1,0 3,-1 4,-2 2,-1 4,-3 7,-6l6 6c-4,5 -8,8 -11,10 -3,1 -6,2 -10,2 -4,0 -8,-1 -10,-3 -3,-3 -4,-6 -4,-9 0,-2 0,-4 1,-7l4 -20 -10 0 2 -8c3,-1 5,-2 8,-3 2,-2 4,-4 6,-6 2,-3 3,-6 4,-9zm34 47c1,0 3,1 4,1 1,1 3,2 3,4 1,1 1,2 1,4 0,1 0,3 -1,4 -1,2 -2,3 -4,4 -1,1 -3,1 -5,1 -2,0 -4,0 -6,-2 -1,-1 -2,-3 -2,-6 0,-1 1,-3 1,-5 1,-1 3,-2 4,-3 2,-1 3,-2 5,-2zm38 -22l-9 -1c0,-6 1,-11 3,-14 2,-4 5,-7 10,-10 4,-2 10,-4 16,-4 6,0 11,1 14,3 4,2 7,4 9,7 2,3 3,6 3,9 0,3 -1,5 -2,7 -1,3 -2,5 -5,7 -2,3 -5,5 -8,8 -4,2 -7,4 -10,5 0,1 -1,1 -1,1l-13 7 15 0c2,0 4,0 5,0 1,0 2,0 2,-1 1,0 2,-1 2,-2 0,-1 1,-2 2,-5l10 0 -9 25 -6 0 -1 -3 -45 0 2 -9c6,-3 13,-8 22,-14 9,-7 15,-11 18,-14 2,-2 3,-4 4,-5 1,-2 1,-3 1,-5 0,-3 -1,-5 -3,-6 -2,-2 -6,-3 -10,-3 -3,0 -6,0 -8,2 -2,1 -4,3 -6,5 -1,3 -1,6 -2,10zm90 -29c7,0 13,3 17,7 5,4 7,10 7,18 0,8 -2,16 -6,23 -3,8 -8,13 -13,16 -5,4 -11,5 -17,5 -6,0 -10,-1 -13,-3 -4,-2 -7,-4 -9,-8 -2,-4 -3,-8 -3,-13 0,-6 1,-12 4,-18 2,-6 4,-11 8,-15 3,-4 7,-7 11,-9 5,-2 9,-3 14,-3zm-1 11c-2,0 -3,0 -5,1 -2,1 -4,2 -5,4 -1,1 -3,4 -4,7 -2,4 -3,8 -4,13 -1,4 -2,8 -2,12 0,2 1,4 2,6 0,2 1,3 3,4 1,1 3,1 4,1 2,0 4,0 7,-2 2,-1 4,-3 5,-5 2,-4 4,-8 5,-14 2,-6 3,-11 3,-15 0,-3 -1,-5 -1,-7 -1,-2 -2,-3 -4,-4 -1,-1 -2,-1 -4,-1zm79 -11l-12 53c0,2 -1,3 -1,3 0,1 1,1 1,2 0,0 1,1 1,1 1,0 2,0 4,0l7 0 -2 9 -42 0 2 -9 6 0c2,0 4,0 5,0 0,0 1,-1 2,-1 0,0 1,-1 1,-1 0,-1 1,-2 1,-4l8 -37 -13 0 2 -10c7,0 16,-2 25,-6l5 0zm36 1l32 0c2,0 3,0 4,0 0,0 1,0 1,0 0,-1 1,-1 1,-2l6 0 -4 17 -33 0 -2 8c2,0 4,0 6,0 9,0 16,2 21,6 5,4 7,8 7,14 0,7 -3,13 -9,18 -5,5 -12,7 -21,7 -5,0 -10,-1 -14,-2 -4,-2 -7,-4 -9,-7 -2,-3 -3,-5 -3,-8 0,-1 0,-3 1,-4 0,-1 1,-2 2,-3 2,0 3,-1 4,-1 1,0 2,1 3,1 1,1 2,2 3,3 0,0 1,1 2,4 1,3 3,4 5,6 2,1 4,2 7,2 4,0 7,-2 10,-4 2,-2 3,-5 3,-8 0,-3 0,-5 -2,-6 -1,-2 -3,-4 -5,-5 -3,-1 -6,-1 -11,-1 -5,0 -10,0 -15,1l10 -36z"/>
   <rect class="fil1" x="3600" y="860" width="373.548" height="8.002"/>
   <rect class="fil1" x="4567" y="860" width="373.548" height="8.002"/>
  </g>
 </g>
</svg>
